<?xml version="1.0" encoding="utf-8"?>
<!-- Generator: Adobe Illustrator 24.0.0, SVG Export Plug-In . SVG Version: 6.00 Build 0)  -->
<svg version="1.1" xmlns="http://www.w3.org/2000/svg" xmlns:xlink="http://www.w3.org/1999/xlink" x="0px" y="0px"
	 viewBox="0 0 256 256" style="enable-background:new 0 0 256 256;" xml:space="preserve">
<style type="text/css">
	.st0{fill:#F98FA6;}
	.st1{fill:#FC657E;}
	.st2{fill:#DAE6F1;}
	.st3{fill:#5290DB;}
	.st4{fill:#FCDD86;}
	.st5{fill:#F5C84C;}
	.st6{fill:#87D147;}
	.st7{fill:#70D6F9;}
	.st8{fill:#EDF4FC;}
	.st9{fill:#9BE5F9;}
	.st10{fill:#B2E26D;}
	.st11{fill:#F9C1A8;}
	.st12{fill:#414344;}
	.st13{fill:#E1FBFF;}
	.st14{fill:#FFE3EC;}
	.st15{fill:#FCBECF;}
	.st16{fill:#EF4460;}
	.st17{fill:#80C2F9;}
	.st18{fill:#3A70BF;}
	.st19{fill:#FCA265;}
	.st20{fill:#5B5D60;}
	.st21{fill:#818182;}
	.st22{fill:#C7D7E5;}
	.st23{fill:#F9D0B4;}
	.st24{fill:#AA6F59;}
	.st25{fill:#D1856D;}
	.st26{fill:#FCC29A;}
	.st27{fill:#29589F;}
	.st28{fill:#F7B386;}
	.st29{fill:#FC8C48;}
	.st30{fill:#FFF0CC;}
	.st31{fill:#57AF12;}
	.st32{fill:#3CAADC;}
	.st33{fill:#EDB311;}
	.st34{fill:#231F20;}
</style>
<g id="Layer_1">
</g>
<g id="Layer_2">
</g>
<g id="Layer_3">
</g>
<g id="Layer_4">
</g>
<g id="Layer_5">
</g>
<g id="Layer_6">
</g>
<g id="Layer_7">
</g>
<g id="Layer_8">
</g>
<g id="Layer_9">
</g>
<g id="Layer_10">
</g>
<g id="Layer_11">
</g>
<g id="Layer_12">
</g>
<g id="Layer_13">
</g>
<g id="Layer_14">
</g>
<g id="Layer_15">
</g>
<g id="Layer_16">
</g>
<g id="Layer_17">
</g>
<g id="Layer_18">
</g>
<g id="Layer_19">
</g>
<g id="Layer_20">
</g>
<g id="Layer_21">
</g>
<g id="Layer_22">
</g>
<g id="Layer_23">
</g>
<g id="Layer_24">
</g>
<g id="Layer_25">
</g>
<g id="Layer_26">
</g>
<g id="Layer_27">
</g>
<g id="Layer_28">
</g>
<g id="Layer_29">
</g>
<g id="Layer_30">
</g>
<g id="Layer_31">
</g>
<g id="Layer_32">
</g>
<g id="Layer_33">
</g>
<g id="Layer_34">
</g>
<g id="Layer_35">
</g>
<g id="Layer_36">
</g>
<g id="Layer_37">
</g>
<g id="Layer_38">
</g>
<g id="Layer_39">
</g>
<g id="Layer_40">
</g>
<g id="Layer_41">
</g>
<g id="Layer_42">
</g>
<g id="Layer_43">
</g>
<g id="Layer_44">
</g>
<g id="Layer_45">
</g>
<g id="Layer_46">
</g>
<g id="Layer_47">
</g>
<g id="Layer_48">
</g>
<g id="Layer_49">
</g>
<g id="Layer_50">
</g>
<g id="Layer_51">
</g>
<g id="Layer_52">
</g>
<g id="Layer_53">
</g>
<g id="Layer_54">
</g>
<g id="Layer_55">
</g>
<g id="Layer_56">
</g>
<g id="Layer_57">
</g>
<g id="Layer_58">
</g>
<g id="Layer_59">
</g>
<g id="Layer_60">
</g>
<g id="Layer_61">
</g>
<g id="Layer_62">
</g>
<g id="Layer_63">
</g>
<g id="Layer_64">
</g>
<g id="Layer_65">
</g>
<g id="Layer_66">
</g>
<g id="Layer_67">
</g>
<g id="Layer_68">
</g>
<g id="Layer_69">
</g>
<g id="Layer_70">
</g>
<g id="Layer_71">
</g>
<g id="Layer_72">
</g>
<g id="Layer_73">
</g>
<g id="Layer_74">
</g>
<g id="Layer_75">
</g>
<g id="Layer_76">
</g>
<g id="Layer_77">
</g>
<g id="Layer_78">
</g>
<g id="Layer_79">
</g>
<g id="Layer_80">
</g>
<g id="Layer_81">
</g>
<g id="Layer_82">
</g>
<g id="Layer_83">
</g>
<g id="Layer_84">
	<g>
		<g>
			<g>
				<path class="st7" d="M208.753,184.212c-0.38-6.813-5.145-12.588-11.762-14.253l-15.347-3.863v39.002
					c-0.675-0.369-1.436-0.598-2.256-0.598H164.9c-0.82,0-1.581,0.229-2.256,0.598v-43.725c0-0.308,0.036-0.607,0.091-0.899
					l-7.274-3.587c-4.662-2.298-7.613-7.045-7.613-12.242v-6.726c-5.594,3.045-11.993,4.778-18.777,4.778h0
					c-6.326,0-12.313-1.515-17.628-4.188v6.135c0,5.197-2.952,9.944-7.613,12.242l-7.274,3.587c0.055,0.292,0.091,0.591,0.091,0.899
					v43.725c-0.675-0.369-1.436-0.598-2.256-0.598H79.9c-0.82,0-1.581,0.229-2.256,0.598v-39.002l-15.347,3.863
					c-6.617,1.666-11.383,7.44-11.762,14.253l-4.369,64.712c-0.138,2.485,1.839,4.576,4.328,4.576h158.299
					c2.489,0,4.466-2.091,4.328-4.576L208.753,184.212z"/>
			</g>
		</g>
		<g>
			<g>
				<path class="st5" d="M94.388,218.5H79.9c-0.82,0-1.581-0.229-2.256-0.598V253.5h19v-35.598
					C95.969,218.271,95.208,218.5,94.388,218.5z"/>
			</g>
		</g>
		<g>
			<g>
				<path class="st5" d="M179.388,218.5H164.9c-0.82,0-1.581-0.229-2.256-0.598V253.5h19v-35.598
					C180.969,218.271,180.208,218.5,179.388,218.5z"/>
			</g>
		</g>
		<g>
			<g>
				<path class="st11" d="M155.46,156.887c-4.662-2.298-7.613-7.045-7.613-12.242v-6.726c-5.594,3.045-11.993,4.778-18.777,4.778h0
					c-6.326,0-12.313-1.515-17.628-4.188v6.135c0,5.197-2.952,9.944-7.613,12.242l-1.703,0.84
					c5.147,9.987,15.566,16.861,27.52,16.861s22.373-6.875,27.52-16.861L155.46,156.887z"/>
			</g>
		</g>
		<g>
			<g>
				<path class="st3" d="M147.834,137.926C147.834,137.926,147.834,137.926,147.834,137.926
					C147.834,137.926,147.834,137.926,147.834,137.926L147.834,137.926z M186.22,104h-7.117c-2.367,1.313-5.088,2.066-7.987,2.066
					c-0.899,0-1.775-0.092-2.635-0.23v0c-0.141,2.094-0.447,4.144-0.905,6.139c-0.003,0.013-0.006,0.025-0.009,0.038
					c-2.582,11.198-9.958,20.594-19.734,25.914c0.004-0.002,0.008-0.004,0.013-0.006v6.726c0,5.197,2.952,9.944,7.613,12.242
					l7.274,3.587c-0.055,0.292-0.091,0.591-0.091,0.899c0-2.691,2.182-4.874,4.874-4.874h9.253c2.692,0,4.874,2.182,4.874,4.874
					v4.722l15.347,3.863c0.579,0.146,1.138,0.333,1.686,0.54v-54.042C198.677,109.605,193.072,104,186.22,104z"/>
			</g>
		</g>
		<g>
			<g>
				<path class="st3" d="M89.658,105.836L89.658,105.836c-0.86,0.139-1.736,0.23-2.635,0.23c-2.899,0-5.62-0.753-7.987-2.066h-5.968
					c-6.851,0-12.457,5.605-12.457,12.457v54.042c0.549-0.207,1.108-0.395,1.687-0.54l15.347-3.863v-4.722
					c0-2.691,2.182-4.874,4.874-4.874h9.253c2.692,0,4.874,2.182,4.874,4.874c0-0.308-0.036-0.607-0.091-0.899l7.274-3.587
					c4.662-2.298,7.613-7.045,7.613-12.242v-6.135C99.128,132.318,90.607,119.983,89.658,105.836z"/>
			</g>
		</g>
		<g>
			<g>
				<path d="M186.221,101.5h-6.978c-1.381,0-2.5,1.119-2.5,2.5s1.119,2.5,2.5,2.5h6.978c5.49,0,9.957,4.467,9.957,9.957v53.582
					c0,1.381,1.119,2.5,2.5,2.5s2.5-1.119,2.5-2.5v-53.582C201.178,108.21,194.468,101.5,186.221,101.5z"/>
			</g>
		</g>
		<g>
			<g>
				<path d="M78.788,101.5h-5.72c-8.247,0-14.957,6.71-14.957,14.957v53.453c0,1.381,1.119,2.5,2.5,2.5s2.5-1.119,2.5-2.5v-53.453
					c0-5.49,4.467-9.957,9.957-9.957h5.72c1.381,0,2.5-1.119,2.5-2.5S80.169,101.5,78.788,101.5z"/>
			</g>
		</g>
		<g>
			<g>
				<path d="M111.441,136.533c-1.381,0-2.5,1.119-2.5,2.5v5.611c0,4.277-2.383,8.108-6.219,10l-6.839,3.372
					c-1.238,0.61-1.747,2.109-1.137,3.348c0.436,0.883,1.322,1.396,2.244,1.396c0.371,0,0.748-0.083,1.104-0.259l6.839-3.372
					c5.557-2.739,9.008-8.289,9.008-14.484v-5.611C113.941,137.652,112.822,136.533,111.441,136.533z"/>
			</g>
		</g>
		<g>
			<g>
				<path d="M163.423,158.026l-6.857-3.382c-3.836-1.892-6.219-5.723-6.219-10v-5.726c0-1.381-1.119-2.5-2.5-2.5s-2.5,1.119-2.5,2.5
					v5.726c0,6.195,3.451,11.745,9.008,14.484l6.857,3.382c0.355,0.176,0.732,0.259,1.104,0.259c0.922,0,1.809-0.513,2.244-1.396
					C165.17,160.136,164.661,158.637,163.423,158.026z"/>
			</g>
		</g>
		<g>
			<g>
				<path d="M215.615,248.756l-4.366-64.683c-0.442-7.949-5.927-14.596-13.647-16.539l-14.363-3.616
					c-1.339-0.33-2.697,0.476-3.035,1.814c-0.337,1.339,0.476,2.697,1.814,3.035l14.363,3.616c5.587,1.405,9.556,6.215,9.878,11.996
					l4.366,64.684c0.028,0.509-0.148,0.992-0.499,1.363c-0.35,0.369-0.823,0.573-1.332,0.573H50.495
					c-0.51,0-0.983-0.204-1.333-0.574c-0.351-0.37-0.527-0.854-0.501-1.334l4.37-64.74c0.32-5.753,4.29-10.563,9.877-11.968
					l14.988-3.773c1.339-0.338,2.151-1.696,1.814-3.035c-0.338-1.339-1.695-2.147-3.035-1.814l-14.988,3.773
					c-7.721,1.943-13.205,8.589-13.646,16.51l-4.37,64.74c-0.104,1.868,0.573,3.719,1.858,5.077
					c1.285,1.359,3.095,2.139,4.966,2.139h158.299c1.87,0,3.68-0.779,4.965-2.138C215.044,252.503,215.722,250.652,215.615,248.756z
					"/>
			</g>
		</g>
		<g>
			<g>
				<path class="st5" d="M94.388,204.5H79.9c-2.616,0-4.756,2.14-4.756,4.756v4.488c0,2.616,2.14,4.756,4.756,4.756h14.488
					c2.616,0,4.756-2.14,4.756-4.756v-4.488C99.144,206.64,97.004,204.5,94.388,204.5z"/>
			</g>
		</g>
		<g>
			<g>
				<path class="st5" d="M179.388,204.5H164.9c-2.616,0-4.756,2.14-4.756,4.756v4.488c0,2.616,2.14,4.756,4.756,4.756h14.488
					c2.616,0,4.756-2.14,4.756-4.756v-4.488C184.144,206.64,182.004,204.5,179.388,204.5z"/>
			</g>
		</g>
		<g>
			<g>
				<path class="st5" d="M176.771,156.5h-9.253c-2.692,0-4.874,2.182-4.874,4.874v43.725c0.675-0.369,1.436-0.598,2.256-0.598
					h14.488c0.82,0,1.581,0.229,2.256,0.598v-43.725C181.644,158.682,179.462,156.5,176.771,156.5z"/>
			</g>
		</g>
		<g>
			<g>
				<path class="st5" d="M91.771,156.5h-9.253c-2.692,0-4.874,2.182-4.874,4.874v43.725c0.675-0.369,1.436-0.598,2.256-0.598h14.488
					c0.82,0,1.581,0.229,2.256,0.598v-43.725C96.644,158.682,94.462,156.5,91.771,156.5z"/>
			</g>
		</g>
		<g>
			<g>
				<path class="st5" d="M82.088,14.882c-4.498-0.837-8.043-4.31-8.898-8.716c-0.043-0.221-0.352-0.221-0.395,0
					c-0.855,4.406-4.4,7.879-8.898,8.716c-0.226,0.042-0.226,0.345,0,0.387c4.498,0.838,8.043,4.311,8.898,8.717
					c0.043,0.221,0.352,0.221,0.395,0c0.855-4.406,4.4-7.879,8.898-8.717C82.314,15.227,82.314,14.924,82.088,14.882z"/>
			</g>
		</g>
		<g>
			<g>
				<path class="st1" d="M225.526,105.941c-3.135-0.583-5.606-3.004-6.202-6.076c-0.03-0.154-0.245-0.154-0.275,0
					c-0.596,3.071-3.067,5.492-6.202,6.076c-0.157,0.029-0.157,0.24,0,0.27c3.135,0.584,5.606,3.004,6.202,6.076
					c0.03,0.154,0.245,0.154,0.275,0c0.596-3.071,3.067-5.492,6.202-6.076C225.684,106.181,225.684,105.97,225.526,105.941z"/>
			</g>
		</g>
		<g>
			<g>
				<path class="st7" d="M44.487,152.302h-2.329v-2.33c0-1.744-1.413-3.157-3.157-3.157s-3.157,1.413-3.157,3.157v2.33h-2.33
					c-1.744,0-3.157,1.414-3.157,3.158c0,1.744,1.413,3.157,3.157,3.157h2.33v2.33c0,1.744,1.413,3.158,3.157,3.158
					s3.157-1.414,3.157-3.158v-2.33h2.329c1.744,0,3.157-1.414,3.157-3.157C47.644,153.715,46.231,152.302,44.487,152.302z"/>
			</g>
		</g>
		<g>
			<g>
				<path class="st5" d="M35.021,179c-1.865,0-3.377,1.512-3.377,3.377c0,1.865,1.512,3.377,3.377,3.377
					c1.865,0,3.377-1.512,3.377-3.377C38.399,180.512,36.887,179,35.021,179z"/>
			</g>
		</g>
		<g>
			<g>
				<path class="st6" d="M99.021,0c-1.865,0-3.377,1.512-3.377,3.377c0,1.865,1.512,3.377,3.377,3.377
					c1.865,0,3.377-1.512,3.377-3.377C102.399,1.512,100.887,0,99.021,0z"/>
			</g>
		</g>
		<g>
			<g>
				<path class="st11" d="M168.575,67.372c-0.022-1.121-0.92-2.044-2.04-2.077c-16.414-0.481-25.063-6.987-28.386-10.244
					c-0.907-0.89-2.372-0.796-3.162,0.199c-14.431,18.148-35.721,15.587-42.879,14.089c-1.301-0.272-2.549,0.708-2.55,2.037
					c0,0,0,0.018,0,0.027v31.784c0,21.731,17.78,39.512,39.511,39.512h0c21.731,0,39.512-17.78,39.512-39.512V67.99
					C168.581,67.783,168.579,67.577,168.575,67.372z"/>
			</g>
		</g>
		<g>
			<g>
				<path class="st12" d="M159.989,25.461c-4.21,0-8.147,1.189-11.529,3.218c-3.952-6.594-11.15-11.047-19.355-11.047h-11.59
					c-22.431,0-40.784,18.353-40.784,40.784V76.69c2.823-2.258,6.397-3.617,10.293-3.617c0.863,0,1.708,0.073,2.535,0.201v-1.872
					c0-0.009,0-0.018,0-0.018c0.001-1.338,1.249-2.318,2.55-2.046c7.158,1.498,28.447,4.059,42.879-14.089
					c0.791-0.995,2.255-1.088,3.162-0.199c3.323,3.257,11.972,9.763,28.386,10.244c1.12,0.033,2.018,0.957,2.04,2.077
					c0.004,0.205,0.006,0.411,0.006,0.618v5.285c0.827-0.128,1.672-0.201,2.535-0.201c4.447,0,8.475,1.768,11.442,4.629V48.031
					C182.558,35.617,172.402,25.461,159.989,25.461z"/>
			</g>
		</g>
		<g>
			<g>
				<path class="st11" d="M171.117,73.074c-0.863,0-1.708,0.073-2.535,0.201v29.912c0,0.891-0.041,1.773-0.1,2.65
					c0.86,0.138,1.736,0.23,2.635,0.23c9.111,0,16.496-7.386,16.496-16.497C187.613,80.459,180.227,73.074,171.117,73.074z"/>
			</g>
		</g>
		<g>
			<g>
				<path class="st11" d="M89.558,103.187c0-4.094,0-21.773,0-29.912c-0.827-0.128-1.672-0.201-2.536-0.201
					c-9.111,0-16.496,7.386-16.496,16.496c0,9.111,7.386,16.497,16.496,16.497c0.899,0,1.775-0.092,2.635-0.23v-0.001
					C89.599,104.959,89.558,104.077,89.558,103.187z"/>
			</g>
		</g>
		<g>
			<g>
				<g>
					<path d="M171.074,67.322c-0.049-2.466-2.011-4.453-4.466-4.526c-15.805-0.464-23.943-6.819-26.709-9.53
						c-0.936-0.918-2.229-1.399-3.525-1.317c-1.308,0.08-2.526,0.716-3.344,1.744l-0.001,0.001
						c-13.325,16.758-32.7,14.812-40.408,13.198c-1.373-0.285-2.78,0.056-3.868,0.938c-1.075,0.873-1.693,2.165-1.694,3.572v31.784
						c0,23.165,18.846,42.012,42.011,42.012s42.012-18.847,42.012-42.012V67.99C171.081,67.768,171.079,67.545,171.074,67.322z
						 M166.081,103.187c0,20.408-16.604,37.012-37.012,37.012s-37.011-16.604-37.011-37.012V71.88
						c7.226,1.428,29.495,3.943,44.633-14.762c4.075,3.878,13.096,10.094,29.389,10.663c0.001,0.069,0.001,0.14,0.001,0.209V103.187
						z"/>
				</g>
			</g>
		</g>
		<g>
			<g>
				<g>
					<g>
						<path d="M159.988,22.961c-3.696,0-7.355,0.839-10.71,2.443c-4.708-6.388-12.238-10.271-20.175-10.271h-11.59
							c-23.866,0-43.283,19.417-43.283,43.283V76.69c0,0.961,0.551,1.837,1.417,2.253s1.893,0.3,2.645-0.301
							c2.51-2.008,5.529-3.069,8.73-3.069c0.692,0,1.417,0.058,2.154,0.172c0.718,0.109,1.455-0.099,2.009-0.572
							c0.554-0.476,0.873-1.169,0.873-1.898V71.88c7.227,1.428,29.496,3.941,44.633-14.762c4.075,3.878,13.096,10.094,29.389,10.663
							c0.001,0.069,0.001,0.14,0.001,0.209v5.284c0,0.729,0.319,1.423,0.873,1.898c0.554,0.474,1.289,0.683,2.009,0.572
							c0.737-0.114,1.462-0.172,2.154-0.172c3.632,0,7.078,1.396,9.706,3.929c0.476,0.458,1.101,0.7,1.736,0.7
							c0.329,0,0.661-0.065,0.977-0.199c0.923-0.393,1.522-1.298,1.522-2.301V48.03C185.059,34.207,173.813,22.961,159.988,22.961z
							 M180.059,72.812c-2.726-1.462-5.781-2.238-8.941-2.238h-0.036V67.99c0-0.223-0.002-0.445-0.007-0.668
							c-0.049-2.466-2.011-4.453-4.466-4.526c-15.805-0.464-23.943-6.819-26.709-9.53c-0.936-0.918-2.229-1.399-3.525-1.317
							c-1.308,0.08-2.526,0.716-3.345,1.745c-13.325,16.758-32.7,14.812-40.408,13.198c-1.372-0.286-2.778,0.056-3.865,0.938
							c-0.861,0.699-1.43,1.667-1.623,2.744h-0.11c-2.732,0-5.366,0.568-7.792,1.667V58.416c0-21.109,17.174-38.283,38.283-38.283
							h11.59c6.982,0,13.577,3.768,17.211,9.832c0.341,0.568,0.894,0.979,1.537,1.14c0.642,0.162,1.324,0.061,1.894-0.281
							c3.122-1.872,6.664-2.862,10.243-2.862c11.066,0,20.07,9.003,20.07,20.069V72.812z"/>
					</g>
				</g>
			</g>
		</g>
		<g>
			<g>
				<path d="M171.117,70.573c-0.592,0-1.205,0.03-1.821,0.091c-1.375,0.135-2.38,1.357-2.245,2.732
					c0.135,1.374,1.347,2.377,2.732,2.244c0.455-0.045,0.904-0.067,1.334-0.067c7.718,0,13.996,6.279,13.996,13.997
					s-6.278,13.996-13.996,13.996c-0.432,0-0.873-0.025-1.35-0.078c-1.383-0.146-2.608,0.84-2.759,2.212
					c-0.15,1.373,0.84,2.607,2.212,2.759c0.66,0.072,1.28,0.107,1.896,0.107c10.475,0,18.996-8.521,18.996-18.996
					S181.592,70.573,171.117,70.573z"/>
			</g>
		</g>
		<g>
			<g>
				<path d="M91.071,105.716c-0.146-1.373-1.373-2.351-2.751-2.222c-0.454,0.049-0.879,0.072-1.298,0.072
					c-7.718,0-13.996-6.278-13.996-13.996s6.278-13.997,13.996-13.997c0.412,0,0.819,0.02,1.221,0.057
					c1.37,0.129,2.593-0.885,2.719-2.26c0.127-1.375-0.886-2.593-2.26-2.719c-0.563-0.052-1.127-0.078-1.68-0.078
					c-10.475,0-18.996,8.522-18.996,18.997s8.521,18.996,18.996,18.996c0.589,0,1.204-0.033,1.827-0.1
					C90.223,108.32,91.217,107.089,91.071,105.716z"/>
			</g>
		</g>
		<g>
			<g>
				<path d="M158.078,156.043c-1.214-0.657-2.73-0.203-3.387,1.014c-5.001,9.271-14.599,15.031-25.047,15.031
					c-10.354,0-19.909-5.684-24.939-14.832c-0.665-1.21-2.187-1.651-3.395-0.986c-1.21,0.665-1.651,2.185-0.986,3.395
					c5.908,10.747,17.143,17.424,29.32,17.424c12.289,0,23.572-6.767,29.447-17.658
					C159.747,158.215,159.294,156.698,158.078,156.043z"/>
			</g>
		</g>
		<g>
			<g>
				<path d="M111.645,83.5c-4.963,0-9,4.037-9,9c0,1.381,1.119,2.5,2.5,2.5s2.5-1.119,2.5-2.5c0-2.206,1.794-4,4-4s4,1.794,4,4
					c0,1.381,1.119,2.5,2.5,2.5s2.5-1.119,2.5-2.5C120.645,87.537,116.607,83.5,111.645,83.5z"/>
			</g>
		</g>
		<g>
			<g>
				<path d="M147.645,83.5c-4.963,0-9,4.037-9,9c0,1.381,1.119,2.5,2.5,2.5s2.5-1.119,2.5-2.5c0-2.206,1.794-4,4-4s4,1.794,4,4
					c0,1.381,1.119,2.5,2.5,2.5s2.5-1.119,2.5-2.5C156.645,87.537,152.607,83.5,147.645,83.5z"/>
			</g>
		</g>
		<g>
			<g>
				<path d="M143.476,113.604c-0.618-1.233-2.12-1.732-3.355-1.115c-3.025,1.517-6.647,2.317-10.476,2.317
					s-7.451-0.801-10.477-2.317c-1.234-0.617-2.736-0.118-3.355,1.115c-0.618,1.234-0.119,2.736,1.115,3.355
					c3.717,1.862,8.114,2.847,12.717,2.847c4.602,0,8.999-0.984,12.716-2.847C143.595,116.34,144.094,114.838,143.476,113.604z"/>
			</g>
		</g>
		<g>
			<g>
				<g>
					<path d="M94.389,202H79.9c-4.001,0-7.256,3.255-7.256,7.256v4.488c0,4.001,3.255,7.256,7.256,7.256h14.488
						c4.001,0,7.256-3.255,7.256-7.256v-4.488C101.645,205.255,98.39,202,94.389,202z M96.645,213.744
						c0,1.244-1.012,2.256-2.256,2.256H79.9c-1.244,0-2.256-1.012-2.256-2.256v-4.488c0-1.244,1.012-2.256,2.256-2.256h14.488
						c1.244,0,2.256,1.012,2.256,2.256V213.744z"/>
				</g>
			</g>
		</g>
		<g>
			<g>
				<g>
					<path d="M179.389,202H164.9c-4.001,0-7.256,3.255-7.256,7.256v4.488c0,4.001,3.255,7.256,7.256,7.256h14.488
						c4.001,0,7.256-3.255,7.256-7.256v-4.488C186.645,205.255,183.39,202,179.389,202z M181.645,213.744
						c0,1.244-1.012,2.256-2.256,2.256H164.9c-1.244,0-2.256-1.012-2.256-2.256v-4.488c0-1.244,1.012-2.256,2.256-2.256h14.488
						c1.244,0,2.256,1.012,2.256,2.256V213.744z"/>
				</g>
			</g>
		</g>
		<g>
			<g>
				<path d="M176.771,154h-9.253c-4.065,0-7.373,3.308-7.373,7.373v42.881c0,1.381,1.119,2.5,2.5,2.5s2.5-1.119,2.5-2.5v-42.881
					c0-1.309,1.064-2.373,2.373-2.373h9.253c1.309,0,2.374,1.064,2.374,2.373v43.124c0,1.381,1.119,2.5,2.5,2.5s2.5-1.119,2.5-2.5
					v-43.124C184.145,157.308,180.837,154,176.771,154z"/>
			</g>
		</g>
		<g>
			<g>
				<path d="M181.645,216.005c-1.381,0-2.5,1.119-2.5,2.5V252.5c0,1.381,1.119,2.5,2.5,2.5s2.5-1.119,2.5-2.5v-33.995
					C184.145,217.124,183.025,216.005,181.645,216.005z"/>
			</g>
		</g>
		<g>
			<g>
				<path d="M162.645,215.826c-1.381,0-2.5,1.119-2.5,2.5v34.178c0,1.381,1.119,2.5,2.5,2.5s2.5-1.119,2.5-2.5v-34.178
					C165.145,216.945,164.025,215.826,162.645,215.826z"/>
			</g>
		</g>
		<g>
			<g>
				<path d="M96.645,216.005c-1.381,0-2.5,1.119-2.5,2.5v34.327c0,1.381,1.119,2.5,2.5,2.5s2.5-1.119,2.5-2.5v-34.327
					C99.145,217.124,98.025,216.005,96.645,216.005z"/>
			</g>
		</g>
		<g>
			<g>
				<path d="M77.645,216.005c-1.381,0-2.5,1.119-2.5,2.5v34.335c0,1.381,1.119,2.5,2.5,2.5s2.5-1.119,2.5-2.5v-34.335
					C80.145,217.124,79.025,216.005,77.645,216.005z"/>
			</g>
		</g>
		<g>
			<g>
				<path d="M91.771,154h-9.253c-4.065,0-7.373,3.308-7.373,7.373v43.124c0,1.381,1.119,2.5,2.5,2.5s2.5-1.119,2.5-2.5v-43.124
					c0-1.309,1.064-2.373,2.373-2.373h9.253c1.309,0,2.374,1.064,2.374,2.373v43.124c0,1.381,1.119,2.5,2.5,2.5s2.5-1.119,2.5-2.5
					v-43.124C99.145,157.308,95.837,154,91.771,154z"/>
			</g>
		</g>
		<g>
			<g>
				<path class="st7" d="M148.874,222h-38.459c-3.036,0-5.52,2.484-5.52,5.521v20.459c0,3.036,2.484,5.521,5.52,5.521h38.459
					c3.036,0,5.521-2.484,5.521-5.521v-20.459C154.394,224.484,151.91,222,148.874,222z"/>
			</g>
		</g>
		<g>
			<g>
				<path class="st3" d="M148.874,222h-38.459c-3.036,0-5.52,2.484-5.52,5.521v20.459c0,3.036,2.484,5.521,5.52,5.521h38.459
					c3.036,0,5.521-2.484,5.521-5.521v-20.459C154.394,224.484,151.91,222,148.874,222z"/>
			</g>
		</g>
		<g>
			<g>
				
					<ellipse transform="matrix(0.3827 -0.9239 0.9239 0.3827 -139.6208 266.5426)" class="st7" cx="129.644" cy="237.75" rx="9.5" ry="9.5"/>
			</g>
		</g>
		<g>
			<g>
				<path class="st3" d="M133.104,213h-6.92c-4.725,0-8.591,3.866-8.591,8.591V222h24.102v-0.409
					C141.695,216.866,137.829,213,133.104,213z"/>
			</g>
		</g>
		<g>
			<g>
				<g>
					<path d="M148.874,219.5h-38.459c-4.423,0-8.021,3.598-8.021,8.021v20.459c0,4.423,3.598,8.021,8.021,8.021h38.459
						c4.423,0,8.021-3.598,8.021-8.021v-20.459C156.895,223.098,153.297,219.5,148.874,219.5z M151.895,247.979
						c0,1.665-1.355,3.021-3.021,3.021h-38.459c-1.665,0-3.021-1.355-3.021-3.021v-20.459c0-1.665,1.355-3.021,3.021-3.021h38.459
						c1.665,0,3.021,1.355,3.021,3.021V247.979z"/>
				</g>
			</g>
		</g>
		<g>
			<g>
				<path d="M148.874,219.5h-38.459c-4.423,0-8.021,3.598-8.021,8.021v20.459c0,4.423,3.598,8.021,8.021,8.021
					c1.381,0,2.5-1.119,2.5-2.5s-1.119-2.5-2.5-2.5c-1.665,0-3.021-1.355-3.021-3.021v-20.459c0-1.665,1.355-3.021,3.021-3.021
					h38.459c1.665,0,3.021,1.355,3.021,3.021v20.459c0,1.665-1.355,3.021-3.021,3.021c-1.381,0-2.5,1.119-2.5,2.5s1.119,2.5,2.5,2.5
					c4.423,0,8.021-3.598,8.021-8.021v-20.459C156.895,223.098,153.297,219.5,148.874,219.5z"/>
			</g>
		</g>
		<g>
			<g>
				<g>
					<path d="M129.645,225.75c-6.617,0-12,5.383-12,12s5.383,12,12,12s12-5.383,12-12S136.262,225.75,129.645,225.75z
						 M129.645,244.75c-3.859,0-7-3.141-7-7s3.141-7,7-7s7,3.141,7,7S133.504,244.75,129.645,244.75z"/>
				</g>
			</g>
		</g>
		<g>
			<g>
				<path d="M115.645,226.375h-3c-1.381,0-2.5,1.119-2.5,2.5s1.119,2.5,2.5,2.5h3c1.381,0,2.5-1.119,2.5-2.5
					S117.025,226.375,115.645,226.375z"/>
			</g>
		</g>
		<g>
			<g>
				<path d="M133.104,210.5h-6.92c-6.116,0-11.092,4.976-11.092,11.092c0,1.381,1.119,2.5,2.5,2.5s2.5-1.119,2.5-2.5
					c0-3.359,2.732-6.092,6.092-6.092h6.92c3.358,0,6.091,2.732,6.091,6.092c0,1.381,1.119,2.5,2.5,2.5s2.5-1.119,2.5-2.5
					C144.195,215.476,139.22,210.5,133.104,210.5z"/>
			</g>
		</g>
		<g>
			<g>
				<path d="M116.846,221.506l-13.5-67c-0.273-1.354-1.595-2.227-2.945-1.957c-1.354,0.273-2.229,1.592-1.957,2.945l13.5,67
					c0.239,1.187,1.282,2.006,2.448,2.006c0.164,0,0.33-0.016,0.497-0.049C116.242,224.178,117.118,222.859,116.846,221.506z"/>
			</g>
		</g>
		<g>
			<g>
				<path d="M158.889,152.549c-1.352-0.271-2.673,0.604-2.945,1.957l-13.5,67c-0.272,1.354,0.604,2.672,1.957,2.945
					c0.167,0.033,0.333,0.049,0.497,0.049c1.165,0,2.209-0.819,2.448-2.006l13.5-67
					C161.118,154.141,160.242,152.822,158.889,152.549z"/>
			</g>
		</g>
	</g>
</g>
<g id="Layer_85">
</g>
</svg>
